<svg width="168" height="26" viewBox="0 0 168 26" fill="none" xmlns="http://www.w3.org/2000/svg">
<path d="M20.5278 17.2397C20.5278 19.5137 19.6747 21.3493 17.941 22.7192C16.2073 24.1165 13.8132 24.8014 10.7311 24.8014H0.273926V18.6644H8.30941H9.41017C9.85047 18.7466 10.2082 18.774 10.5109 18.774C11.8318 18.774 12.4923 18.2534 12.4923 17.2397C12.4923 15.9247 11.419 14.6918 9.30009 13.5137C5.69513 11.6781 3.74129 10.5822 3.46611 10.226C1.34716 8.60961 0.273926 6.50002 0.273926 3.86988V1.56851H8.19934V3.6507C8.19934 5.10276 9.27257 6.39043 11.3915 7.48632C15.0515 9.45892 17.5007 10.911 18.7115 11.8699C19.9223 12.8288 20.5278 14.6096 20.5278 17.2397Z" fill="#E11B22"/>
<path d="M31.7555 6.82879H23.72V1.56851H31.7555V6.82879ZM31.7555 24.8014H23.72V10.774H31.7555V24.8014Z" fill="#E11B22"/>
<path d="M65.3834 24.8014H33.2415L40.7266 10.3356H49.2024L44.1389 18.9932H54.2658L45.1296 1.56851H53.4953L65.3834 24.8014Z" fill="#E11B22"/>
<path d="M67.0071 25.0479V18.911C69.5663 18.911 71.6027 18.363 73.0612 17.2671C74.4647 16.089 75.1526 14.8288 75.1526 13.4315C75.1526 11.7603 74.4647 10.363 73.0612 9.26712C71.6027 8.08904 69.5663 7.51369 67.0071 7.51369V1.4863C73.3914 1.4863 77.4367 2.71917 79.1153 5.21232C81.3169 2.71917 85.3621 1.4863 91.2236 1.4863V7.51369C88.7194 7.51369 86.7381 8.08904 85.2796 9.26712C83.9587 10.363 83.2982 11.7603 83.2982 13.4315C83.2982 14.8288 83.9587 16.089 85.2796 17.2671C86.7381 18.363 88.7194 18.911 91.2236 18.911V25.0479C84.6191 25.0479 80.6564 23.7603 79.3355 21.2123C77.9596 23.7603 73.8317 25.0479 67.0071 25.0479Z" fill="#E11B22"/>
<path d="M103.525 24.8014H95.5991V1.56851H119.843C123.723 1.56851 126.64 2.33564 128.594 3.86988C130.548 5.40413 131.511 7.51372 131.511 10.226V24.8014H123.476V10.226C123.476 9.13016 123.283 8.39043 122.925 8.03427C122.402 7.51372 121.384 7.26714 119.843 7.26714H107.515H103.552V10.226V24.8014H103.525ZM117.201 24.8014H109.606V12.5274H117.201V24.8014Z" fill="#E11B22"/>
<path d="M165.524 24.8014H133.382L140.867 10.3356H149.343L144.28 18.9932H154.407L145.27 1.56851H153.636L165.524 24.8014Z" fill="#E11B22"/>
<path d="M167.231 4.6096C167.231 5.70549 166.845 6.63699 166.102 7.37672C165.359 8.11645 164.424 8.50001 163.323 8.50001C162.222 8.50001 161.314 8.11645 160.543 7.37672C159.773 6.6096 159.388 5.70549 159.388 4.6096C159.388 3.51371 159.773 2.6096 160.516 1.86987C161.286 1.13014 162.195 0.746582 163.295 0.746582C164.396 0.746582 165.304 1.13014 166.075 1.86987C166.845 2.6096 167.231 3.5411 167.231 4.6096ZM166.433 4.63699C166.433 3.76028 166.13 3.02056 165.524 2.41782C164.919 1.81508 164.176 1.51371 163.295 1.51371C162.415 1.51371 161.672 1.81508 161.066 2.41782C160.461 3.02056 160.158 3.76028 160.158 4.63699C160.158 5.51371 160.461 6.25343 161.094 6.85617C161.699 7.45891 162.47 7.78768 163.323 7.78768C164.203 7.78768 164.946 7.48631 165.552 6.85617C166.13 6.25343 166.433 5.51371 166.433 4.63699ZM164.946 6.39042H164.176C164.066 6.19864 164.038 5.97946 164.038 5.73288C164.038 5.40412 163.983 5.21234 163.901 5.13014C163.818 5.04795 163.598 4.99316 163.295 4.99316H162.635V6.39042H161.837V2.85617H163.488C164.396 2.85617 164.864 3.21234 164.864 3.92467C164.864 4.22604 164.726 4.47261 164.451 4.66439C164.644 4.80138 164.754 5.10275 164.781 5.5411L164.836 5.73288L164.864 5.86987V5.97946L164.946 6.39042ZM164.066 3.92467C164.066 3.65069 163.846 3.5411 163.378 3.5411H162.635V4.36302H163.323C163.818 4.33562 164.066 4.19864 164.066 3.92467Z" fill="#E11B22"/>
</svg>
